<svg xmlns="http://www.w3.org/2000/svg" version="1.1" xmlns:xlink="http://www.w3.org/1999/xlink" xmlns:svgjs="http://svgjs.dev/svgjs" width="1980" height="1080" preserveAspectRatio="none" viewBox="0 0 1980 1080"><g mask="url(&quot;#SvgjsMask1002&quot;)" fill="none"><rect width="1980" height="1080" x="0" y="0" fill="rgba(224, 220, 220, 1)"></rect><path d="M1980 0L1862.35 0L1980 238.15z" fill="rgba(255, 255, 255, .1)"></path><path d="M1862.35 0L1980 238.15L1980 254.02L1544.57 0z" fill="rgba(255, 255, 255, .075)"></path><path d="M1544.5700000000002 0L1980 254.02L1980 279.17L1345.17 0z" fill="rgba(255, 255, 255, .05)"></path><path d="M1345.17 0L1980 279.17L1980 675.98L793.9000000000001 0z" fill="rgba(255, 255, 255, .025)"></path><path d="M0 1080L622.61 1080L0 671.21z" fill="rgba(0, 0, 0, .1)"></path><path d="M0 671.21L622.61 1080L836.81 1080L0 629.62z" fill="rgba(0, 0, 0, .075)"></path><path d="M0 629.62L836.81 1080L1300.1999999999998 1080L0 352.47z" fill="rgba(0, 0, 0, .05)"></path><path d="M0 352.47L1300.1999999999998 1080L1517.0899999999997 1080L0 195.31000000000003z" fill="rgba(0, 0, 0, .025)"></path></g><defs><mask id="SvgjsMask1002"><rect width="1980" height="1080" fill="#ffffff"></rect></mask></defs></svg>